<?xml version="1.0" encoding="iso-8859-1"?>
<!-- Uploaded to: SVG Repo, www.svgrepo.com, Generator: SVG Repo Mixer Tools -->
<!DOCTYPE svg PUBLIC "-//W3C//DTD SVG 1.1//EN" "http://www.w3.org/Graphics/SVG/1.1/DTD/svg11.dtd">
<svg fill="#000000" version="1.1" id="Capa_1" xmlns="http://www.w3.org/2000/svg" xmlns:xlink="http://www.w3.org/1999/xlink" 
	 width="800px" height="800px" viewBox="0 0 496.26 496.26"
	 xml:space="preserve">
<g>
	<g>
		<path d="M125.708,232.737c-1.136,0.673-2.239,1.38-3.307,2.238c-0.087,0.171-0.2,0.371-0.18,0.249L125.708,232.737z"/>
		<polygon points="125.47,264.635 125.479,264.635 125.46,264.625 		"/>
		<polygon points="126.679,265.182 126.596,265.152 126.679,265.191 		"/>
		<polygon points="125.128,268.868 124.982,268.801 125.138,268.878 		"/>
		<path d="M125.479,264.625l0.429,0.205l-0.409-0.186l0.37,0.225l1.556,0.937l-1.146-0.8l0.22,0.107l0.097,0.039l-0.346-0.176
			l-2.307-1.6l-0.151-0.156l-0.278-0.322c-0.161-0.146-0.264-0.273-0.351-0.448c-0.161-0.186-0.209-0.371-0.2-0.283
			c0.02,0.059,0.18,0.468,0.297,1.054c0.283,0.195,0.673,0.556,0.912,0.663L125.479,264.625z"/>
		<path d="M394.147,386.852c-1.16-8.877-2.214-14.457-2.214-14.447c0,0-1.044-5.589-2.614-13.959
			c-1.658-8.096-3.873-18.914-6.077-29.723c-2.195-10.632-4.146-21.079-5.297-28.756c-1.19-7.697-1.619-12.584-1.619-12.584
			c-0.01,0-0.614-5.062-0.663-11.783c-0.02-3.287,0.204-7.043,0.799-9.687c0.234-1.142,0.537-1.922,0.693-2.273
			c2.351-2.038,4.672-4.848,6.477-9.939c0.557-1.619,1.005-4.058,0.976-6.644c0-2.438-0.468-4.975-1.473-7.535
			c-1.044-2.697-2.292-4.526-3.639-6.062c-0.878-1.049-1.883-1.971-2.81-2.707c-0.341-2.517-0.36-6.194-0.205-9.35
			c0.371-6.965,1.132-12.154,1.132-12.154s0.614-5.019,1.902-12.837c1.278-7.804,3.287-18.402,5.385-29.167
			c2.058-10.939,4.106-21.855,5.667-30.069c1.366-8.462,2.283-14.09,2.283-14.09s0.907-5.639,1.814-14.579
			c0.448-4.472,0.858-9.789,0.897-15.919c-0.078-6.204-0.117-12.955-2.683-21.836c-0.576-2-1.824-5.146-2.575-6.575
			c-0.8-1.668-1.63-3.336-2.604-4.985c-1.854-3.292-4.098-6.501-6.595-9.467c-4.984-5.984-11.335-10.73-17.246-13.667
			c-5.97-2.917-11.276-4.224-14.886-4.843c-3.639-0.62-5.687-0.708-5.687-0.708v0.01c-0.039,0-0.849-0.054-2.098-0.132
			c-0.644-0.01-1.385-0.029-2.185-0.048c-0.781,0.01-1.619,0.029-2.459,0.039c-0.546,0.029-1.082,0.059-1.609,0.088
			c-0.419-0.488-0.849-0.975-1.297-1.478c-0.547-0.6-1.112-1.186-1.639-1.746c-0.547-0.542-1.034-1.039-1.464-1.458
			c-0.868-0.829-1.463-1.38-1.463-1.38s-4.663-4.531-12.33-9.008c-7.628-4.604-18.124-8.691-28.425-11.096
			c-10.33-2.478-20.446-3.517-27.918-3.936C252.909-0.068,248.022,0,248.022,0.01l-0.907,0.01
			c-12.979,0.122-26.265,1.098-39.926,4.468c-13.525,3.453-27.942,9.028-40.428,20.895l0.015,0.01
			c-0.034,0.02-0.551,0.542-1.351,1.327c-0.4,0.419-0.858,0.922-1.356,1.449c-0.493,0.561-1.009,1.161-1.532,1.751
			c-0.419,0.517-0.839,1.039-1.238,1.526c-0.639,0.01-1.298,0.02-1.985,0.029c-0.78,0.044-1.561,0.083-2.297,0.122
			c-0.741,0.059-1.429,0.107-2.009,0.161c-1.19,0.117-1.98,0.2-1.98,0.2s-1.897,0.175-5.243,0.819
			c-3.336,0.668-8.189,1.863-13.842,4.443c-5.604,2.517-12.027,6.604-17.461,12.247c-2.736,2.785-5.233,5.94-7.365,9.247
			c-1.117,1.649-2.043,3.346-2.985,5.053l-0.351,0.644l-0.605,1.268l-0.434,0.937c-0.518,1.229-1.288,3.258-1.615,4.404
			c-2.678,9.389-2.468,16.242-2.39,22.475c0.22,6.146,0.79,11.447,1.361,15.915c1.155,8.876,2.204,14.452,2.204,14.452
			s1.039,5.584,2.609,13.954c1.658,8.111,3.888,18.919,6.082,29.728c2.19,10.627,4.146,21.084,5.307,28.757
			c1.186,7.691,1.614,12.578,1.614,12.578c0.61,6.17,0.883,12.247,0.474,17.159c-0.083,3.209-0.961,5.594-1.239,6.433
			c-1.458,1.278-2.887,2.897-4.365,5.233c-0.609,0.932-1.429,2.595-1.98,4.214c-0.546,1.6-0.98,3.171-1.136,5.609
			c-0.391,4.282,0.926,9.296,3.395,13.071c1.268,1.95,2.984,3.668,4.526,4.945c0.18,1.249,0.307,2.858,0.317,4.702
			c0.054,4.955-0.478,10.827-1.229,16.758c0,0-0.61,5.015-1.897,12.838c-1.288,7.804-3.297,18.388-5.404,29.166
			c-2.068,10.936-4.126,21.86-5.672,30.074c-1.371,8.457-2.288,14.086-2.288,14.086s-0.917,5.638-1.829,14.573
			c-0.438,4.487-0.868,9.794-0.888,15.938c0.068,6.195,0.112,12.955,2.678,21.822c0.571,1.999,1.819,5.17,2.556,6.564
			c0.8,1.678,1.629,3.336,2.609,4.994c1.849,3.287,4.092,6.507,6.58,9.472c4.984,5.989,11.33,10.74,17.251,13.677
			c5.965,2.936,11.276,4.233,14.896,4.857c3.575,0.614,5.604,0.702,5.662,0.702c0,0,0.839,0.049,2.127,0.117
			c0.629,0.02,1.38,0.029,2.17,0.049c0.786-0.01,1.639-0.02,2.478-0.039c0.546-0.029,1.068-0.059,1.605-0.088
			c0.419,0.487,0.839,0.985,1.277,1.483c0.571,0.595,1.122,1.18,1.648,1.746c0.542,0.536,1.039,1.033,1.459,1.453
			c0.882,0.819,1.458,1.385,1.458,1.385s4.677,4.517,12.34,8.994c7.638,4.613,18.129,8.691,28.435,11.101
			c10.33,2.478,20.451,3.512,27.918,3.931c7.491,0.43,12.389,0.361,12.389,0.352c-0.01,0,4.892,0.068,12.374-0.36
			c7.481-0.42,17.627-1.474,27.986-4c10.34-2.487,20.895-6.652,28.562-11.501c7.647-4.691,12.271-9.433,12.31-9.491
			c0,0,0.537-0.536,1.356-1.346c0.399-0.43,0.858-0.927,1.356-1.464c0.487-0.546,1.014-1.131,1.521-1.736
			c0.429-0.526,0.839-1.033,1.248-1.531c0.645,0,1.308-0.01,1.971-0.029c0.78-0.049,1.561-0.078,2.302-0.117
			c0.731-0.059,1.425-0.107,2.01-0.155c1.19-0.117,1.971-0.215,1.971-0.215v0.01c0,0,1.892-0.186,5.238-0.839
			c3.346-0.654,8.193-1.863,13.842-4.419c5.618-2.517,12.018-6.604,17.461-12.271c2.741-2.78,5.238-5.931,7.354-9.237
			c1.112-1.648,2.049-3.336,2.985-5.053l0.351-0.645l0.605-1.277l0.429-0.937c0.547-1.239,1.317-3.259,1.64-4.409
			c2.672-9.385,2.458-16.242,2.38-22.475C395.289,396.606,394.724,391.31,394.147,386.852z M389.319,424.056
			c-0.312,1.044-0.976,2.79-1.453,3.912l-0.43,0.937l-0.537,1.121l-0.321,0.596c-0.878,1.609-1.766,3.209-2.8,4.76
			c-1.99,3.102-4.321,6.028-6.867,8.623c-5.072,5.258-11.022,9.053-16.251,11.413c-5.258,2.399-9.813,3.521-12.954,4.155
			c-3.151,0.605-4.956,0.781-4.956,0.781s-0.858,0.087-2.165,0.204c-0.654,0.049-1.414,0.117-2.234,0.166
			c-0.81,0.029-1.678,0.068-2.536,0.098c-0.868,0-1.727,0-2.536,0c-0.107,0-0.205-0.01-0.303-0.01
			c-0.039,0.059-0.078,0.107-0.116,0.166c-0.508,0.653-1.034,1.355-1.571,2.038c-0.556,0.664-1.121,1.317-1.639,1.932
			c-0.546,0.586-1.043,1.132-1.473,1.6c-0.878,0.868-1.443,1.435-1.463,1.454c0,0-4.331,4.487-11.628,8.974
			c-7.276,4.604-17.402,8.604-27.431,11.023c-10.027,2.448-19.918,3.502-27.254,3.911c-7.336,0.42-12.159,0.361-12.159,0.361
			s-4.805,0.068-12.145-0.352c-7.326-0.399-17.222-1.434-27.23-3.843c-9.989-2.312-20.08-6.263-27.333-10.643
			c-7.292-4.263-11.686-8.535-11.686-8.535s-0.629-0.605-1.585-1.493c-0.474-0.478-1.02-1.044-1.6-1.619
			c-0.131-0.146-0.268-0.302-0.4-0.448h0.01l0.029-0.01h0.01c-0.029-0.01-0.049-0.01-0.078-0.02
			c-0.439-0.488-0.888-0.985-1.351-1.482c-0.585-0.693-1.156-1.405-1.717-2.068c-0.02-0.029-0.039-0.049-0.059-0.088
			c-0.8,0.068-1.648,0.137-2.487,0.205c-0.917,0.02-1.839,0.049-2.697,0.068c-0.868-0.01-1.668-0.02-2.366-0.029
			c-1.39-0.088-2.321-0.137-2.321-0.137v0.01c-0.068-0.01-1.946-0.098-5.263-0.654c-3.375-0.595-8.292-1.805-13.793-4.496
			c-5.482-2.712-11.35-7.102-15.993-12.691c-2.307-2.76-4.434-5.765-6.175-8.887c-0.917-1.551-1.697-3.121-2.453-4.711
			c-0.722-1.375-1.81-4.155-2.351-6.019c-2.356-8.146-2.424-14.671-2.497-20.651c0.029-5.94,0.438-11.14,0.868-15.559
			c0.902-8.789,1.809-14.378,1.809-14.378s0.912-5.6,2.278-13.988c1.536-8.165,3.595-19.08,5.653-29.985
			c2.107-10.779,4.126-21.402,5.423-29.284c1.312-7.872,1.932-12.983,1.932-12.983c0.756-6.038,1.297-12.027,1.249-17.295
			c0-0.664-0.053-1.269-0.083-1.902l0.209,0.137l1.551,0.946l-1.161-0.81l0.078,0.039l0.419,0.195l0.053,0.02l-0.58-0.264
			l-0.58-0.41c-0.078-1.775-0.21-3.434-0.469-4.564c-0.029-0.137-0.059-0.205-0.093-0.332c-1.458-0.976-3.453-2.673-4.843-4.819
			c-2.005-3.082-3.087-7.14-2.756-10.622c0.132-1.971,0.478-3.249,0.927-4.556c0.454-1.327,1.112-2.692,1.619-3.453
			c1.41-2.244,2.79-3.663,4.194-4.795c0.43-0.756,1.8-4.214,1.971-8.599c0.449-5.316,0.151-11.559-0.483-17.88
			c0,0-0.439-5.004-1.644-12.784c-1.17-7.765-3.136-18.29-5.326-28.947c-2.22-10.798-4.424-21.597-6.083-29.708
			c-1.551-8.312-2.6-13.867-2.6-13.867s-1.039-5.541-2.185-14.281c-0.551-4.38-1.112-9.579-1.331-15.534
			c-0.088-6.053-0.239-12.647,2.209-21.217c0.298-1.048,0.971-2.794,1.439-3.917l0.429-0.936l0.531-1.103l0.327-0.609
			c0.868-1.605,1.761-3.205,2.81-4.741c1.975-3.106,4.302-6.043,6.862-8.643c5.062-5.263,11.027-9.057,16.251-11.408
			c5.272-2.385,9.828-3.526,12.964-4.146c3.146-0.61,4.946-0.775,4.946-0.775s0.868-0.093,2.175-0.22
			c0.649-0.044,1.419-0.103,2.229-0.161c0.81-0.029,1.678-0.063,2.546-0.093c0.858,0,1.717,0,2.526,0c0.112,0,0.2,0.01,0.302,0.01
			c0.039-0.059,0.078-0.107,0.117-0.166c0.513-0.653,1.039-1.351,1.571-2.039c0.561-0.659,1.117-1.317,1.648-1.932
			c0.537-0.595,1.039-1.136,1.468-1.604c0.868-0.868,1.438-1.439,1.468-1.468C181.257,17.1,195.05,11.696,208.155,8.36
			c13.228-3.258,26.24-4.233,38.979-4.355l0.888-0.01c0,0,4.809-0.068,12.145,0.351c7.326,0.4,17.227,1.429,27.216,3.833
			c10.009,2.327,20.085,6.263,27.333,10.647c7.296,4.268,11.686,8.535,11.686,8.535s0.634,0.605,1.59,1.507
			c0.469,0.468,1.024,1.029,1.6,1.614c0.127,0.142,0.264,0.303,0.41,0.454h-0.02h-0.029c0.02,0.01,0.039,0.01,0.059,0.01
			c0.449,0.488,0.897,0.99,1.355,1.488c0.596,0.697,1.171,1.41,1.727,2.068c0.02,0.029,0.039,0.049,0.059,0.088
			c0.801-0.068,1.639-0.117,2.498-0.19c0.896-0.029,1.823-0.059,2.682-0.078c0.868,0.01,1.678,0.02,2.371,0.029
			c1.375,0.083,2.272,0.132,2.292,0.132c0,0,1.912,0.088,5.297,0.649c3.355,0.59,8.282,1.799,13.783,4.492
			c5.473,2.707,11.335,7.092,15.988,12.676c2.321,2.78,4.438,5.775,6.185,8.892c0.916,1.551,1.697,3.126,2.448,4.716
			c0.741,1.385,1.824,4.155,2.36,6.023c2.352,8.15,2.429,14.671,2.507,20.646c-0.029,5.931-0.448,11.135-0.878,15.554
			c-0.897,8.789-1.795,14.383-1.795,14.383s-0.897,5.594-2.272,13.974c-1.531,8.179-3.58,19.09-5.647,29.996
			c-2.088,10.779-4.117,21.406-5.404,29.288c-1.308,7.882-1.912,12.984-1.912,12.984c-0.01,0-0.78,5.233-1.161,12.457
			c-0.107,2.219-0.098,4.604,0.01,6.882c-0.059-0.029-0.117-0.068-0.176-0.098l0.176,0.127c0.059,1.341,0.117,2.707,0.303,3.829
			c0.049,0.346,0.107,0.688,0.175,0.995c0.029,0.015,0.068,0.024,0.088,0.044c0.752,0.458,2.283,1.746,3.395,3.073
			c1.083,1.258,2.107,2.751,2.966,4.936c0.819,2.078,1.19,4.136,1.19,6.126c0.02,2.088-0.332,4.068-0.8,5.414
			c-1.454,4.117-3.376,6.448-5.297,8.136c-1.005,0.712-4.565,3.258-3.971,2.839l1.132-0.654c0.722-0.487,1.463-1.014,2.225-1.6
			c0.059-0.068,0.136-0.195,0.146-0.225h-0.01c0.254-0.186,0.352-0.253,0.479-0.341c-0.205,0.185-0.4,0.399-0.614,0.575
			c-0.059,0.078-0.098,0.107-0.195,0.312c-0.352,0.653-0.81,1.932-1.142,3.492c-0.692,3.121-0.917,7.092-0.897,10.555
			c0.059,7.023,0.673,12.164,0.673,12.174c0,0,0.449,5.004,1.659,12.778c1.17,7.774,3.131,18.29,5.325,28.952
			c2.215,10.788,4.419,21.587,6.077,29.703c1.551,8.311,2.604,13.861,2.604,13.861s1.034,5.55,2.186,14.29
			c0.556,4.37,1.103,9.579,1.326,15.521C391.602,408.896,391.758,415.491,389.319,424.056z M123.631,268.176l0.02,0.01l0.01,0.01
			L123.631,268.176z M123.821,268.264C123.821,268.254,123.821,268.254,123.821,268.264l0.39,0.186L123.821,268.264z"/>
		<path d="M372.21,232.83l0.155,0.107c0.176,0.151,0.332,0.341,0.469,0.522c0.233,0.21,0.39,0.546,0.448,0.6
			c0.176,0.41-0.078-0.18-0.293-1.097c-0.867-0.6-1.804-1.122-2.75-1.57L372.21,232.83z"/>
		<path d="M369.497,230.869l-0.02,0.093v0.029l-0.01,0.02l0.596,0.268c0.059,0.034,0.117,0.073,0.156,0.093l-0.723-0.532V230.869z"
			/>
		<path d="M371.429,227.367l-0.107-0.044l-0.243-0.02h-0.059l-0.039,0.01l0,0l0.722,0.332c0.215,0.097,0.4,0.239,0.624,0.351
			l-0.858-0.629H371.429z"/>
		<path d="M161.191,38.556c-0.112,0.18-0.2,0.322-0.264,0.4l-0.059,0.112l-0.02,0.019v0.01c1.352-1.37,2.02-2.048,2.02-2.048
			s1.487-0.468,4.453-1.39h-0.01l-0.029-0.01l-0.122-0.01c-0.098,0-0.239-0.02-0.429-0.029c-0.375-0.019-0.907-0.048-1.556-0.078
			c-0.561-0.029-1.219-0.054-1.897-0.073c-0.429,0.609-0.849,1.209-1.2,1.712C161.708,37.736,161.401,38.229,161.191,38.556z"/>
		<path d="M165.576,461.377c0.658-0.098,1.219-0.186,1.619-0.234c0.195-0.029,0.336-0.059,0.449-0.078l0.117-0.019h0.029h0.01
			c-3.272-0.663-4.911-1.005-4.911-1.005s-0.839-0.731-2.497-2.166l0.02,0.02l0.068,0.107c0.073,0.098,0.151,0.234,0.263,0.41
			c0.239,0.341,0.586,0.829,0.985,1.424c0.4,0.537,0.883,1.161,1.38,1.824c0.049,0,0.117,0,0.181-0.01
			C164.118,461.553,164.908,461.465,165.576,461.377z"/>
		<polygon points="160.382,457.875 160.392,457.885 160.392,457.875 		"/>
		<path d="M335.063,457.689c0.117-0.175,0.195-0.292,0.254-0.39l0.059-0.107l0.02-0.029c-1.347,1.356-2.02,2.039-2.02,2.039
			s-1.473,0.468-4.438,1.385h0.02l0.02,0.01h0.117c0.107,0.01,0.254,0.029,0.438,0.049c0.381,0.02,0.918,0.049,1.552,0.088
			c0.565,0.02,1.229,0.039,1.892,0.068c0.439-0.624,0.859-1.21,1.2-1.707C334.547,458.51,334.849,458.021,335.063,457.689z"/>
		<polygon points="335.396,457.163 335.396,457.173 335.405,457.163 		"/>
		<path d="M330.674,34.873c-0.673,0.098-1.229,0.186-1.619,0.239c-0.205,0.029-0.351,0.058-0.448,0.078l-0.137,0.02h-0.029l0,0v0.01
			c3.277,0.649,4.926,0.99,4.926,0.99s0.829,0.731,2.478,2.156l-0.01-0.01l-0.068-0.107c-0.059-0.102-0.155-0.229-0.272-0.41
			c-0.234-0.341-0.566-0.829-0.976-1.419c-0.4-0.532-0.878-1.156-1.366-1.829c-0.059,0-0.127,0.01-0.186,0.01
			C332.128,34.712,331.347,34.79,330.674,34.873z"/>
		<polygon points="335.863,38.385 335.844,38.365 335.854,38.385 		"/>
		<path d="M354.144,258.363l-0.215-0.127l-0.107-0.068l-2.779-2.01l-0.488-0.479l-1.111-1.189c0.614,1.18,1.248,2.175,1.883,2.965
			c0.965,1.171,2.39,2.264,2.867,2.615c0.371,0.253,0.8,0.458,1.21,0.673l0.79,0.419l0.468,0.234l0.117,0.059
			c0.117-0.498,0.293-0.937,0.449-1.414l-0.127-0.049c-0.41-0.166-0.771-0.43-1.161-0.645l-0.917-0.487L354.144,258.363z"/>
		<path d="M140.804,235.396l0.488,0.258c0.122,0.073,0.331,0.224,0.512,0.351l0.839,0.498l3.614,2.531l0.039,0.039l0.083,0.068
			l0.156,0.161l0.302,0.298l0.61,0.609l1.166,1.259c0.683,0.819,1.298,1.648,1.897,2.507c0.551,0.819,0.893,1.6,1.332,2.419
			c0.537-1.277,1-2.526,1.375-3.726c1.561-4.937,2.19-9.409,2.57-13.677c0.668-8.486,0.19-16.139-0.522-23.611
			c0,0-0.537-5.945-1.858-14.441c-1.288-8.535-3.375-19.612-5.604-30.479c-2.204-10.726-4.404-21.456-6.043-29.508
			c-1.478-7.892-2.453-13.145-2.453-13.145s-1-5.263-1.99-12.886c-0.478-3.795-0.927-8.17-1.078-12.545
			c-0.19-4.277,0.151-8.853,0.829-10.94c0.088-0.258-0.063,0.19-0.049,0l0.405-0.907l-0.078,0.142l-0.01,0.02
			c-0.068,0.137,0.571-1.161,0.288-0.6l-0.029,0.059l-0.059,0.122l-0.098,0.229l0.078-0.122c0.449-0.8,0.858-1.61,1.356-2.307
			c0.931-1.458,1.951-2.727,3.039-3.814c2.107-2.209,4.443-3.697,6.74-4.736c4.575-2.088,8.574-2.317,8.574-2.317
			s0.995-0.083,2.498-0.21c0.766-0.01,1.668-0.029,2.624-0.039c0.97,0.049,1.99,0.098,3.029,0.156l1.478,0.171l1.317,0.209
			c2.36,0.561,4.555,1.073,6.443,1.522c5.355,1.297,8.93,2.156,8.93,2.156s0.888-3.556,2.239-8.921
			c0.327-1.327,0.688-2.785,1.068-4.316l0.288-1.166l0.01-0.039l-0.029,0.068l-0.01,0.01v0.01h-0.01l0.01-0.02l0,0l0.063-0.181
			l0.117-0.439l-0.142,0.551l0.181-0.4l0.399-0.761l0.513-0.839l0.609-0.849c0.449-0.571,0.878-1.088,1.239-1.537
			c0.858-0.912,1.424-1.502,1.424-1.502l0.01,0.01c5.536-5.414,14.437-9.516,24.206-11.896c9.818-2.444,20.617-3.346,31.542-3.424
			l0.761-0.01c0-0.01,4.185-0.063,10.32,0.288c6.126,0.332,14.203,1.209,21.704,3.029c7.531,1.756,14.35,4.521,18.661,7.15
			c4.37,2.575,6.496,4.707,6.496,4.707s0.166,0.156,0.449,0.439c0.283,0.278,0.683,0.678,1.17,1.156
			c0.215,0.239,0.469,0.512,0.713,0.79l0.731,0.878l0.702,0.941l0.614,0.937l0.498,0.849l0.233,0.493l-0.136-0.473l0.136,0.419
			l0.049,0.161v-0.049l-0.049-0.078l0.059,0.181l0.352,1.258c0.488,1.658,0.937,3.214,1.346,4.663
			c1.648,5.775,2.751,9.628,2.751,9.628s3.746-1.405,9.384-3.507c1.405-0.527,2.927-1.088,4.546-1.688
			c0.644-0.239,1.347-0.488,2.059-0.747l1.161-0.312l1.336-0.278l1.385-0.22l1.356-0.17c0.858-0.039,1.658-0.078,2.351-0.122
			c0.674,0.01,1.229,0.029,1.619,0.029c0.381,0.034,0.615,0.044,0.615,0.044c0.02,0,3.521,0.059,7.374,1.926
			c1.922,1,3.98,2.449,5.989,4.824c0.995,1.19,1.99,2.561,2.888,4.195c0.487,0.771,0.897,1.648,1.337,2.541
			c0.526,1.034,0.38,0.897,0.673,1.668c0.8,2.463,1.171,7.092,1.132,11.384c-0.01,4.385-0.332,8.789-0.723,12.588
			c-0.761,7.633-1.6,12.886-1.6,12.886s-0.858,5.253-2.127,13.144c-1.512,8.019-3.531,18.709-5.55,29.396
			c-2.107,10.798-4.185,21.768-5.57,30.146c-1.385,8.379-2.087,14.184-2.087,14.184s-0.878,5.633-1.386,14.866
			c-0.175,4.682-0.39,10.154,0.673,17.29c0.518,2.795,1.083,5.877,2.684,9.525c0.059-0.098,0.077-0.186,0.116-0.282
			c1.093-2.117,2.575-4.342,4.321-6.458l1.435-1.581l0.761-0.755l0.195-0.2l0.088-0.103l0.049-0.049
			c-1.746,1.249-0.439,0.312,1.102-0.79c0.674-0.59,1.337-1.078,1.922-1.507l0.761-0.419c0.429-0.288-1.229,0.888-2.692,1.927
			c-1.385,1.18-2.838,2.896-4.116,6.443c-0.02,0.077-0.049,0.204-0.078,0.302c0.556-0.771,1.093-1.551,1.717-2.302l1.376-1.492
			l0.712-0.742l0.194-0.18l0.078-0.088l0.059-0.054c-1.619,1.15-0.37,0.253,1.063-0.766c0.595-0.532,1.19-0.971,1.707-1.351
			l0.673-0.371c0.381-0.268-1.082,0.78-2.38,1.722c-1.229,1.039-2.536,2.58-3.678,5.77c-0.292,0.985-0.653,2.604-0.634,4.312
			c0.049,1.609,0.322,3.307,0.985,5.033c0.761,1.814,1.561,3.005,2.38,4c0.858,1.053,2.156,2.019,2.585,2.341
			c0.273,0.195,0.595,0.321,0.888,0.507l0.858,0.449l0.43,0.225c1.16-3.854,2.702-7.229,5.131-9.512
			c0.78-0.722,1.268-1.434,1.482-2.087c1.717-0.897,1.717-1.805-0.37-2.692c-0.254-0.107-0.479-0.283-0.723-0.439
			c-0.429-0.36-0.975-0.741-1.639-1.072c-19.782-17.871,26.182-138.507,11.647-170.659c-15.101-33.283-47.544-21.197-47.544-21.197
			S315.915,19.9,248.101,19.9c-67.844,0-75.955,32.463-75.955,32.463s-33.629-8.111-48.695,21.197
			c-13.452,26.177,25.592,123.451,16.022,161.196l0.02,0.01l0.263,0.112l0.517,0.239l0.292,0.161l0.117,0.059L140.804,235.396z"/>
		<path d="M345.228,248.257c0.254,0.526,0.449,1.005,0.762,1.541c0.663,1.239,1.678,2.624,2.701,3.912l0.732,0.78
			c-0.244-0.469-0.488-0.888-0.732-1.453c-0.731-1.902-1.043-3.785-1.082-5.57c-0.029-1.756,0.312-3.365,0.634-4.468
			c-0.927,1.308-1.766,2.614-2.419,3.892C345.579,247.369,345.452,247.799,345.228,248.257z"/>
		<path d="M149.261,244.813c-0.576-0.81-1.146-1.6-1.795-2.37l-0.941-1.005c1.458,2.624,2.287,5.804,2.058,8.545
			c-0.131,1.405-0.341,2.331-0.6,3.219c1.219-1.727,2.219-3.463,3.039-5.189C150.49,246.969,149.993,245.906,149.261,244.813z"/>
		<path d="M140.004,236.673l0.507,0.273c0.044,0.02,0.142,0.107,0.18,0.127l1.259,0.771l3.307,2.297l0.039,0.029l0.083,0.078
			l0.137,0.137l0.292,0.283l0.571,0.575l0.175,0.195c-0.2-0.342-0.249-0.761-0.478-1.083c-1.18-1.971-3.146-3.58-4.263-4.341
			l-0.722-0.439l-0.269-0.18l-0.229-0.132l-1.092-0.507c-0.137,0.498-0.298,0.951-0.449,1.429l0.122,0.049l0.468,0.209
			L140.004,236.673L140.004,236.673L140.004,236.673z"/>
		<path d="M356.777,261.484l-0.292-0.117c-0.371-0.176-0.713-0.41-1.073-0.624l-1.073-0.566l-0.927-0.497l-0.225-0.146l-0.116-0.068
			l-3.034-2.204l-0.517-0.498c-0.684-0.673-1.366-1.395-1.971-2.087c-1.093-1.376-2.146-2.829-2.858-4.127
			c-0.098-0.176-0.146-0.312-0.225-0.478c-1.199,2.897-2.126,5.677-2.673,8.204c-1.482,6.926-1.619,12.622-1.639,17.373
			c0.078,9.442,0.839,15.217,0.839,15.217s0.527,5.94,1.863,14.438c1.288,8.535,3.375,19.606,5.609,30.482
			c2.185,10.721,4.39,21.451,6.038,29.498c1.473,7.893,2.448,13.15,2.448,13.15s0.995,5.268,1.99,12.886
			c0.468,3.794,0.917,8.174,1.073,12.544c0.175,4.264-0.176,8.838-0.84,10.926c-0.088,0.273,0.059-0.176,0.059,0l-0.399,0.888
			l0.068-0.127l0.02-0.02c-0.146,0.282-0.215,0.419-0.254,0.517l-0.01,0.039l-0.01,0.02c0-0.01,0.02-0.049,0.02-0.059l0.039-0.088
			l0.107-0.224l0.029-0.059l-0.107,0.175c-0.448,0.801-0.868,1.61-1.356,2.303c-0.936,1.473-1.96,2.741-3.043,3.824
			c-2.107,2.204-4.448,3.696-6.74,4.73c-4.575,2.098-8.574,2.322-8.574,2.322s-1.005,0.087-2.498,0.204
			c-0.761,0.01-1.658,0.029-2.613,0.039c-0.977-0.049-1.99-0.107-3.024-0.156l-1.483-0.175l-1.307-0.205
			c-2.36-0.566-4.565-1.083-6.447-1.531c-5.355-1.288-8.926-2.156-8.926-2.156s-0.897,3.57-2.244,8.916
			c-0.331,1.346-0.683,2.779-1.072,4.321l-0.293,1.161l-0.02,0.097l0.049-0.116l0.01-0.029v0.01l-0.01,0.02l-0.068,0.175
			l-0.117,0.439l0.137-0.498l-0.176,0.352l-0.391,0.761l-0.517,0.839l-0.614,0.849c-0.449,0.566-0.878,1.083-1.229,1.541
			c-0.858,0.878-1.443,1.474-1.443,1.483c0,0-1.951,2.097-6.185,4.73c-4.155,2.673-10.906,5.443-18.378,7.258
			c-7.452,1.824-15.52,2.712-21.646,3.062c-6.136,0.352-10.315,0.303-10.315,0.293c0,0.01-4.185,0.059-10.32-0.293
			c-6.131-0.331-14.203-1.209-21.704-3.023c-7.541-1.756-14.364-4.526-18.661-7.15c-4.385-2.585-6.501-4.712-6.501-4.712
			s-0.17-0.155-0.458-0.438c-0.283-0.273-0.678-0.673-1.161-1.161c-0.219-0.234-0.468-0.507-0.717-0.78l-0.731-0.849l-0.697-0.946
			l-0.62-0.937l-0.498-0.849l-0.234-0.478l0.131,0.468l-0.131-0.419l-0.049-0.156l0.01,0.029l0.039,0.078l-0.049-0.186l-0.361-1.258
			c-0.478-1.658-0.927-3.21-1.336-4.663c-1.649-5.765-2.746-9.618-2.746-9.618s-3.755,1.395-9.389,3.502
			c-1.409,0.526-2.936,1.093-4.545,1.697c-0.649,0.234-1.351,0.497-2.068,0.741l-1.151,0.312l-1.346,0.282l-1.39,0.215l-1.346,0.176
			c-0.858,0.039-1.658,0.088-2.36,0.117c-0.659-0.01-1.215-0.02-1.605-0.029c-0.38-0.02-0.61-0.039-0.61-0.039
			c-0.029,0-3.526-0.049-7.384-1.932c-1.907-0.985-3.966-2.448-5.97-4.809c-0.99-1.2-1.99-2.576-2.887-4.205
			c-0.483-0.771-0.902-1.648-1.332-2.545c-0.537-1.064-0.385-0.908-0.678-1.679c-0.8-2.468-1.17-7.091-1.136-11.384
			c0.02-4.389,0.346-8.789,0.727-12.583c0.761-7.638,1.6-12.886,1.609-12.886c0,0,0.849-5.258,2.136-13.14
			c1.507-8.019,3.536-18.72,5.556-29.401c2.117-10.798,4.194-21.762,5.575-30.151c1.405-8.379,2.107-14.183,2.107-14.183
			c0.849-6.858,1.546-13.833,1.507-21.559c-0.068-3.901-0.229-7.931-1.209-12.69c-0.439-2.254-1.156-4.78-2.327-7.511
			c-1.639,3.209-3.824,6.486-6.984,9.549l-0.917,0.645c0.761-0.723,1.546-1.639,2.478-3.034c0.331-0.575,0.96-1.727,1.336-2.868
			c0.093-0.243,0.151-0.517,0.21-0.771c-1.166,1.679-2.487,3.347-4.131,4.927l-0.902,0.644c0.668-0.644,1.39-1.464,2.209-2.712
			c0.288-0.517,0.868-1.561,1.21-2.585c0.327-1.005,0.565-1.98,0.717-3.609c0.22-2.8-0.59-6.224-2.297-8.711
			c-1.17-1.995-3.258-3.551-4.117-4.092l-0.287-0.181l-0.391-0.22l-0.01-0.01l-0.971-0.458c-1.166,3.857-2.717,7.242-5.15,9.525
			c-0.761,0.741-1.249,1.453-1.463,2.098c-1.717,0.906-1.736,1.805,0.371,2.682c0.263,0.117,0.473,0.303,0.722,0.459
			c0.429,0.371,0.976,0.722,1.62,1.063c19.797,17.87-26.182,138.507-11.608,170.658c15.071,33.292,47.525,21.196,47.525,21.196
			s9.292,32.464,77.116,32.464c67.829,0,75.955-32.464,75.955-32.464s33.604,8.116,48.686-21.196
			C386.246,396.528,347.188,299.234,356.777,261.484z"/>
		<path d="M339.521,219.593c0.507-9.33,1.376-14.993,1.376-14.993s0.711-5.833,2.106-14.232c1.386-8.414,3.473-19.377,5.579-30.176
			c2.01-10.681,4.02-21.377,5.541-29.376c1.278-7.862,2.127-13.105,2.127-13.105s0.839-5.248,1.6-12.817
			c0.371-3.766,0.683-8.121,0.702-12.438c0.039-4.214-0.351-8.75-1.073-10.955c-0.272-0.712-0.078-0.429-0.604-1.458
			c-0.409-0.854-0.819-1.712-1.269-2.438c-0.857-1.561-1.814-2.848-2.73-3.965c-1.873-2.229-3.756-3.536-5.521-4.448
			c-3.531-1.727-6.838-1.785-6.838-1.785c-0.01,0-0.205-0.01-0.566-0.029c-0.38-0.01-0.926-0.02-1.57-0.029
			c-0.331,0.01-0.683,0.02-1.072,0.029c-0.391,0.029-0.781,0.058-1.21,0.097l-1.308,0.161l-1.355,0.229l-1.287,0.283l-1.044,0.278
			c-2.79,1.039-5.404,2.004-7.638,2.834c-5.766,2.161-9.629,3.589-9.629,3.589s-1.111-3.956-2.809-9.872
			c-0.43-1.478-0.897-3.087-1.376-4.785c-0.224-0.8-0.468-1.614-0.712-2.468l-0.546-1.029l-0.565-0.868l-0.654-0.888l-0.692-0.839
			c-0.244-0.268-0.487-0.532-0.692-0.771c-0.225-0.229-0.439-0.449-0.615-0.639c-0.204-0.19-0.37-0.346-0.526-0.488
			c-0.273-0.258-0.448-0.41-0.448-0.41s-2-2.019-6.243-4.516c-4.165-2.546-10.828-5.243-18.251-6.979
			c-7.385-1.79-15.364-2.658-21.432-2.99c-6.077-0.347-10.232-0.288-10.232-0.288l-0.751,0.01
			c-10.848,0.088-21.533,0.98-31.19,3.385c-9.613,2.327-18.28,6.385-23.523,11.521c-0.034,0-0.571,0.566-1.4,1.424
			c-0.351,0.429-0.761,0.941-1.189,1.473l-0.552,0.795l-0.458,0.781l-0.391,0.78c-0.19,0.746-0.375,1.497-0.556,2.219
			c-0.39,1.565-0.761,3.053-1.103,4.424c-1.375,5.482-2.297,9.15-2.297,9.15s-3.653-0.883-9.15-2.209
			c-2.156-0.527-4.672-1.127-7.379-1.775l-1.229-0.2l-1.448-0.17l-1.497-0.122l-1.469-0.049c-0.951,0.02-1.838,0.029-2.6,0.039
			c-1.478,0.112-2.458,0.2-2.458,0.2s-3.843,0.22-8.13,2.2c-2.156,0.966-4.312,2.346-6.292,4.404
			c-1.02,1.01-1.966,2.195-2.844,3.585c-0.473,0.659-0.873,1.439-1.292,2.2l-0.088,0.166l-0.39,0.819
			c0.01,0.141,0.21-0.41,0.132-0.176c-0.581,1.766-0.961,6.243-0.78,10.428c0.161,4.292,0.609,8.628,1.078,12.394
			c0.99,7.574,1.956,12.827,1.956,12.827s0.99,5.233,2.458,13.115c1.648,8.048,3.848,18.778,6.043,29.508
			c2.229,10.877,4.326,21.973,5.624,30.542c1.322,8.545,1.858,14.525,1.858,14.525c0.722,7.521,1.209,15.247,0.531,23.894
			c-0.39,4.346-1.019,8.911-2.639,14.003c-0.497,1.551-1.155,3.199-1.907,4.867c0.112,0.225,0.297,0.508,0.4,0.731
			c1.317,3.024,2.078,5.736,2.565,8.155c1,4.927,1.171,9.023,1.229,12.983c0.039,7.843-0.659,14.876-1.517,21.763
			c0,0-0.703,5.853-2.107,14.252c-1.39,8.408-3.478,19.382-5.585,30.181c-2.019,10.682-4.038,21.373-5.564,29.371
			c-1.269,7.863-2.127,13.102-2.127,13.102s-0.839,5.248-1.6,12.817c-0.371,3.765-0.697,8.125-0.717,12.437
			c-0.039,4.225,0.36,8.76,1.087,10.955c0.258,0.712,0.068,0.409,0.6,1.463c0.419,0.858,0.81,1.707,1.277,2.438
			c0.849,1.562,1.8,2.839,2.727,3.971c1.868,2.233,3.746,3.541,5.497,4.448c3.536,1.717,6.838,1.775,6.838,1.775
			s0.21,0.01,0.571,0.029c0.38,0.01,0.921,0.02,1.561,0.039c0.326-0.01,0.697-0.029,1.068-0.039c0.39-0.029,0.8-0.059,1.229-0.098
			l1.307-0.156l1.336-0.234l1.292-0.283l1.048-0.272c2.785-1.044,5.404-2.01,7.638-2.839c5.775-2.156,9.633-3.59,9.633-3.59
			s1.117,3.961,2.814,9.872c0.42,1.482,0.888,3.082,1.371,4.779c0.229,0.8,0.468,1.62,0.708,2.468l0.551,1.034l0.556,0.868
			l0.664,0.888l0.697,0.839c0.239,0.273,0.478,0.527,0.688,0.771c0.22,0.233,0.43,0.448,0.62,0.644
			c0.2,0.185,0.371,0.341,0.522,0.487c0.278,0.264,0.448,0.43,0.448,0.43s2,2.019,6.253,4.516
			c4.166,2.547,10.828,5.248,18.241,6.975c7.39,1.795,15.374,2.664,21.446,2.995c6.073,0.342,10.228,0.283,10.228,0.283
			s4.15,0.049,10.228-0.303c6.077-0.312,14.037-1.21,21.393-3.015c7.335-1.775,13.939-4.506,17.948-7.071
			c4.058-2.526,5.892-4.507,5.911-4.526c0,0,0.557-0.576,1.395-1.443c0.342-0.43,0.752-0.938,1.181-1.474l0.546-0.8l0.469-0.771
			l0.41-0.829c0.194-0.741,0.36-1.463,0.546-2.176c0.39-1.561,0.761-3.053,1.112-4.408c1.365-5.482,2.282-9.141,2.282-9.141
			s3.648,0.888,9.149,2.215c2.156,0.517,4.673,1.121,7.375,1.766l1.21,0.204l1.463,0.176l1.502,0.127l1.454,0.049
			c0.945-0.01,1.844-0.02,2.584-0.029c1.483-0.137,2.459-0.215,2.459-0.215s3.862-0.225,8.135-2.194
			c2.146-0.976,4.322-2.361,6.292-4.419c1.005-1.005,1.961-2.195,2.839-3.58c0.479-0.663,0.878-1.444,1.307-2.195l0.068-0.126
			l0.391-0.859c-0.01-0.137-0.205,0.42-0.127,0.176c0.596-1.766,0.956-6.242,0.78-10.428c-0.166-4.292-0.604-8.623-1.083-12.398
			c-0.984-7.569-1.96-12.817-1.96-12.817s-0.985-5.238-2.458-13.12c-1.639-8.047-3.844-18.777-6.029-29.508
			c-2.243-10.867-4.33-21.968-5.628-30.542c-1.327-8.535-1.863-14.524-1.863-14.524s-0.761-5.805-0.858-15.363
			c0.029-4.81,0.166-10.594,1.678-17.686c0.644-2.937,1.717-6.204,3.258-9.667c-2.067-4.37-2.779-7.94-3.375-11.11
			C339.103,229.864,339.355,224.338,339.521,219.593z M208.745,321.953c23.455-84.826,0,0,23.455-84.826
			c-14.505-5.858-24.752-20.08-24.752-36.683c0-21.836,17.699-39.536,39.535-39.536c21.846,0,39.541,17.7,39.541,39.536
			c0,14.876-8.204,27.82-20.329,34.57c22.582,86.938,22.582,86.938,22.582,86.938S211.711,321.953,208.745,321.953z"/>
	</g>
</g>
</svg>